<?xml version="1.0" encoding="utf-8"?>
<!-- Generator: Adobe Illustrator 23.0.3, SVG Export Plug-In . SVG Version: 6.00 Build 0)  -->
<svg version="1.1" id="Layer_1" xmlns="http://www.w3.org/2000/svg" xmlns:xlink="http://www.w3.org/1999/xlink" x="0px" y="0px"
	 viewBox="0 0 112.4 194.5" style="enable-background:new 0 0 112.4 194.5;" xml:space="preserve">
<style type="text/css">
	.st0{fill:#ADF2F3;}
	.st1{fill:#A3E8E8;}
	.st2{fill:#3CA2DF;}
	.st3{fill:#3364CD;}
	.st4{fill:#8FD4D4;}
	.st5{fill:#288ECB;}
	.st6{fill:#46ACDF;}
	.st7{fill:#1F50B9;}
	.st8{fill:none;stroke:#0031B6;stroke-width:0;stroke-linecap:round;stroke-linejoin:round;}
</style>
<g>
	<g>
		<path class="st0" d="M13.6,145.3H7.9v-17.8H0.2v-5.1h21.1v5.1h-7.7V145.3z"/>
		<path class="st0" d="M31.6,138.7h-2.4v6.6h-5.7v-22.9c2.4-0.1,6.1-0.2,9.2-0.2c5.9,0,9.6,2.8,9.6,8.2c0,3.1-1.5,5.5-4,6.9l5.5,8
			h-6.7l-4.2-6.6H31.6z M32.9,133.9c2.3,0,3.9-1.4,3.9-3.5c0-2.3-1.5-3.3-4.1-3.3c-1,0-2.3,0-3.4,0v6.8H32.9z"/>
		<path class="st0" d="M67.1,134.9c0,6.8-4.1,10.8-10.7,10.8c-6.6,0-10.7-4-10.7-10.8v-12.6h5.7v12.6c0,3.5,1.9,5.5,5,5.5
			c3,0,5-2,5-5.5v-12.6h5.7V134.9z"/>
		<path class="st0" d="M88.1,128.5c-3.2-1-6.1-1.5-8-1.5c-2,0-3.2,0.6-3.2,2c0,1.5,1.9,1.8,5.1,2.5c4.7,1,7.8,2.5,7.8,6.9
			c0,4.9-3.8,7.4-9.6,7.4c-2.9,0-6.6-0.6-10.2-2l1.3-5c3.7,1.4,6.7,1.9,8.7,2c2.4,0,3.7-0.6,3.7-2c0-1.9-2.6-2.2-5.5-2.8
			c-5.1-1.1-7.5-2.7-7.5-6.7c0-4.5,3.6-7.2,9.3-7.2c3.2,0,6.9,0.7,9.3,1.5L88.1,128.5z"/>
		<path class="st0" d="M104.5,145.3h-5.7v-17.8h-7.7v-5.1h21.1v5.1h-7.7V145.3z"/>
	</g>
	<g>
		<path class="st0" d="M24.1,164.2c0,7.2-4.9,12-12.1,12s-12-4.8-12-12c0-7.2,4.9-12,12-12S24.1,157,24.1,164.2z M21.6,164.2
			c0-5.8-3.9-9.7-9.6-9.7c-5.6,0-9.5,3.9-9.5,9.7s3.9,9.7,9.5,9.7C17.7,173.9,21.6,170,21.6,164.2z"/>
		<path class="st0" d="M33.9,175.6l-7.3-15.6h2.6l6,12.9l5.9-12.9h2.5l-7.2,15.6H33.9z"/>
		<path class="st0" d="M60.3,166.9c0,0.8,0,1-0.1,1.8h-13c0.4,3.2,2.6,5.3,6,5.3c2,0,3.6-0.3,5.7-0.9l0.4,1.9
			c-2,0.6-3.8,1.1-6.2,1.1c-5.3,0-8.4-3.5-8.4-8.3c0-5,3.4-8.3,8.1-8.3C57.2,159.5,60.2,162.4,60.3,166.9z M47.1,166.9h11
			c0-3.4-2.2-5.5-5.3-5.5C49.5,161.4,47.4,163.6,47.1,166.9z"/>
		<path class="st0" d="M72.9,161.9c-2.3,0-4.1,0.1-6.4,0.3v13.3h-2.3v-15.1c2.8-0.5,5.8-0.8,8.7-0.8V161.9z"/>
		<path class="st0" d="M89.1,175.6h-5.7v-22.9h5.7V175.6z"/>
		<path class="st0" d="M112.4,160.9c0,5.2-3.9,8.5-10,8.5h-3.2v6.2h-5.7v-22.9c2.7-0.1,5.7-0.3,8.8-0.3
			C108.4,152.4,112.4,155.5,112.4,160.9z M102.7,164.5c2.3,0,4-1.3,4-3.5c0-2.3-1.7-3.5-4-3.5c-1.2,0-2.4,0-3.5,0.1v7H102.7z"/>
	</g>
	<g>
		<path class="st0" d="M7.7,187.8v2.6H2.9v3.9H0.1v-11.5h8.4v2.5H2.9v2.5H7.7z"/>
		<path class="st0" d="M21.7,188.5c0,3.6-2.5,6-6.1,6s-6.1-2.4-6.1-6s2.5-6,6.1-6S21.7,184.9,21.7,188.5z M18.8,188.5
			c0-2-1.3-3.4-3.2-3.4c-1.9,0-3.2,1.3-3.2,3.4s1.3,3.4,3.2,3.4C17.4,191.9,18.8,190.5,18.8,188.5z"/>
		<path class="st0" d="M34,189.1c0,3.4-2.1,5.4-5.4,5.4c-3.3,0-5.3-2-5.3-5.4v-6.3h2.9v6.3c0,1.8,1,2.8,2.5,2.8c1.5,0,2.5-1,2.5-2.8
			v-6.3H34V189.1z"/>
		<path class="st0" d="M46.7,194.3h-2.6l-5.3-6.7v6.7h-2.8v-11.5h2.6l5.3,6.7v-6.7h2.8V194.3z"/>
		<path class="st0" d="M59.4,188.5c0,3.6-2.5,5.9-5.9,5.9c-1.7,0-3.3-0.1-4.5-0.1v-11.5c1.2-0.1,2.7-0.1,4.3-0.1
			C56.9,182.7,59.4,184.9,59.4,188.5z M56.5,188.5c0-2-1.3-3.3-3.2-3.3c-0.5,0-1,0-1.5,0v6.6c0.6,0,1.2,0,1.8,0
			C55.2,191.8,56.5,190.5,56.5,188.5z"/>
		<path class="st0" d="M62.6,194.3h-3.1l5.1-11.5h2.6l5.1,11.5h-3.1l-0.8-1.9h-5.1L62.6,194.3z M64.4,190h3.1l-1.6-3.8L64.4,190z"/>
		<path class="st0" d="M78,194.3h-2.8v-8.9h-3.8v-2.5h10.5v2.5H78V194.3z"/>
		<path class="st0" d="M85.8,194.3h-2.8v-11.5h2.8V194.3z"/>
		<path class="st0" d="M99.8,188.5c0,3.6-2.5,6-6.1,6s-6.1-2.4-6.1-6s2.5-6,6.1-6S99.8,184.9,99.8,188.5z M96.9,188.5
			c0-2-1.3-3.4-3.2-3.4c-1.9,0-3.2,1.3-3.2,3.4s1.3,3.4,3.2,3.4C95.5,191.9,96.9,190.5,96.9,188.5z"/>
		<path class="st0" d="M112.3,194.3h-2.6l-5.3-6.7v6.7h-2.8v-11.5h2.6l5.3,6.7v-6.7h2.8V194.3z"/>
	</g>
</g>
<g>
	<path class="st1" d="M72.7,2.7c3.6-2.1,6.8-2.2,9.2-0.8L108,17.1c0,0,0.1,0.1,0.1,0.1c-2.3-1.4-5.6-1.2-9.1,0.8L52.2,45l-46-26.7
		c-7.2-4.2-7.2-10.9,0-15.1s18.9-4.2,26.1,0l20,11.4L72.7,2.7"/>
	<ellipse id="Axonometric_Centered_Ellipse_21_" class="st2" cx="19.2" cy="10.7" rx="11.1" ry="6.4"/>
	<path class="st3" d="M78.9,82.6c0,4.2-1.4,7.1-3.8,8.5l-26.7,15.3c0,0,0,0,0,0c2.3-1.4,3.8-4.3,3.8-8.5l0-53L99,18
		c7.1-4.1,12.9-0.7,12.9,7.7c0,8.4-5.8,18.5-12.9,22.6L78.9,59.9L78.9,82.6z"/>
	
		<ellipse id="Axonometric_Centered_Ellipse_20_" transform="matrix(0.4895 -0.872 0.872 0.4895 21.6222 103.2687)" class="st1" cx="99" cy="33.2" rx="11.1" ry="6.4"/>
	
		<ellipse id="Axonometric_Centered_Ellipse_28_" transform="matrix(0.4895 -0.872 0.872 0.4895 21.6222 103.2687)" class="st1" cx="99" cy="33.2" rx="11.1" ry="6.4"/>
	<path class="st2" d="M26.3,83c0,8.4,5.8,18.5,12.9,22.6c7.1,4.1,12.9,0.7,12.9-7.7l0-53l-46-26.7c-3.6-2.1-5.4-4.8-5.4-7.5v30.6
		c0,2.7,1.8,5.5,5.4,7.5l20.1,11.6L26.3,83z"/>
	
		<ellipse id="Axonometric_Centered_Ellipse_19_" transform="matrix(0.872 -0.4895 0.4895 0.872 -39.2561 30.7801)" class="st3" cx="39.2" cy="90.5" rx="6.4" ry="11.1"/>
	<path class="st4" d="M81.9,1.9c-2-1.2-4.6-1.3-7.5,0l26.3,15.3c2.6-1.1,5-1.2,6.8-0.3c0,0,0.1,0,0.1,0L81.9,1.9z"/>
	<path class="st4" d="M104.8,35.8l-11-6.4c-0.3,0.6-0.7,1.2-1,1.8l11,6.4C104.2,37,104.5,36.4,104.8,35.8z"/>
	<path class="st4" d="M91.2,37.7c0,5,3.5,7.1,7.8,4.6c1.3-0.8,2.5-1.8,3.6-3.1L92.1,33C91.6,34.6,91.2,36.1,91.2,37.7z"/>
	<path class="st5" d="M11.4,6.1C9.2,7.4,8.1,9,8.1,10.7c0,1.6,1.1,3.3,3.3,4.5c1.4,0.8,3,1.3,4.7,1.6V4.5
		C14.4,4.8,12.8,5.4,11.4,6.1z"/>
	<path class="st5" d="M18.1,4.3V17c0.7,0,1.3,0,2,0V4.3C19.5,4.3,18.8,4.3,18.1,4.3z"/>
	<path class="st6" d="M0.7,10.7v30.6c0,2.3,1.3,4.6,3.9,6.6V17.2C2.1,15.3,0.7,13,0.7,10.7z"/>
	<path class="st7" d="M48.4,106.5C48.4,106.4,48.4,106.4,48.4,106.5l26.7-15.3c2-1.2,3.4-3.6,3.7-6.9L52.1,99.6
		C51.8,102.9,50.4,105.2,48.4,106.5z"/>
	<g>
		<line class="st8" x1="23.4" y1="91.1" x2="23.4" y2="91.1"/>
		<line class="st8" x1="50.1" y1="75.8" x2="50.1" y2="75.8"/>
	</g>
	<g>
		<line class="st8" x1="52.8" y1="80" x2="52.8" y2="80"/>
		<line class="st8" x1="26.1" y1="95.3" x2="26.1" y2="95.3"/>
	</g>
	<path class="st7" d="M39.2,81.4c-4.3-2.5-7.8-0.4-7.8,4.6c0,1.5,0.3,3.1,0.8,4.6l10.6-6.1C41.8,83.2,40.5,82.1,39.2,81.4z"/>
	<path class="st7" d="M44.1,86.1l-11,6.3c0.3,0.6,0.6,1.2,1,1.8l11.1-6.3C44.8,87.3,44.4,86.7,44.1,86.1z"/>
</g>
</svg>
